{
  "asset": {
    "version": "2.0",
    "generator": "Sketchup glTF Exporter v1.2.6 by Centaur"
  },
  "scene": 0,
  "scenes": [
    {
      "nodes": [
        0
      ]
    }
  ],
  "samplers": [
    {
    }
  ],
  "nodes": [
    {
      "name": "root",
      "children": [
        1,
        2,
        3,
        4,
        14,
        15,
        16,
        19,
        20
      ],
      "mesh": 18
    },
    {
      "name": "glass",
      "mesh": 0
    },
    {
      "name": "hud",
      "mesh": 1
    },
    {
      "name": "panel",
      "mesh": 2
    },
    {
      "name": "wheels",
      "children": [
        5,
        10,
        12
      ]
    },
    {
      "children": [
        6,
        8
      ]
    },
    {
      "name": "组件#85",
      "children": [
        7
      ],
      "mesh": 4
    },
    {
      "mesh": 3
    },
    {
      "name": "组件#85",
      "children": [
        9
      ],
      "mesh": 6
    },
    {
      "mesh": 5
    },
    {
      "name": "Gruppe#12",
      "children": [
        11
      ],
      "mesh": 8
    },
    {
      "mesh": 7
    },
    {
      "name": "Gruppe#12",
      "children": [
        13
      ],
      "mesh": 10
    },
    {
      "mesh": 9
    },
    {
      "mesh": 11
    },
    {
      "mesh": 12
    },
    {
      "children": [
        17,
        18
      ],
      "mesh": 15
    },
    {
      "mesh": 13
    },
    {
      "mesh": 14
    },
    {
      "name": "RA-22700",
      "mesh": 16
    },
    {
      "name": "RA-22700",
      "mesh": 17
    }
  ],
  "materials": [
    {
      "pbrMetallicRoughness": {
        "baseColorFactor": [
          0.009,
          0.009,
          0.009,
          0.53
        ],
        "metallicFactor": 0.1,
        "roughnessFactor": 0.9
      },
      "name": "mi-8_glass [spec1",
      "doubleSided": true,
      "alphaMode": "BLEND"
    },
    {
      "pbrMetallicRoughness": {
        "baseColorFactor": [
          0.1905,
          0.1905,
          0.1905,
          1.0
        ],
        "metallicFactor": 0.1,
        "roughnessFactor": 0.9
      },
      "name": "mi-8_2 [spec]1"
    },
    {
      "pbrMetallicRoughness": {
        "baseColorFactor": [
          0.0582,
          0.0582,
          0.0582,
          1.0
        ],
        "metallicFactor": 0.1,
        "roughnessFactor": 0.9
      },
      "name": "mi-8_1"
    },
    {
      "pbrMetallicRoughness": {
        "baseColorFactor": [
          0.6456,
          0.6456,
          0.6456,
          1.0
        ],
        "metallicFactor": 0.1,
        "roughnessFactor": 0.9
      },
      "name": "05"
    },
    {
      "pbrMetallicRoughness": {
        "baseColorFactor": [
          0.0127,
          0.0127,
          0.0127,
          1.0
        ],
        "metallicFactor": 0.1,
        "roughnessFactor": 0.9
      },
      "name": "<Charcoal>"
    },
    {
      "pbrMetallicRoughness": {
        "baseColorFactor": [
          0.2176,
          0.2176,
          0.2176,
          1.0
        ],
        "metallicFactor": 0.1,
        "roughnessFactor": 0.9
      },
      "name": "default material",
      "doubleSided": true
    },
    {
      "pbrMetallicRoughness": {
        "baseColorFactor": [
          0.0892,
          0.0892,
          0.0892,
          1.0
        ],
        "metallicFactor": 0.1,
        "roughnessFactor": 0.9
      },
      "name": "mi-8_3 [spec]1"
    },
    {
      "pbrMetallicRoughness": {
        "baseColorFactor": [
          1.0,
          1.0,
          1.0,
          1.0
        ],
        "metallicFactor": 0.1,
        "roughnessFactor": 0.9
      },
      "name": "Color M00",
      "doubleSided": true
    },
    {
      "pbrMetallicRoughness": {
        "baseColorFactor": [
          0.0,
          0.0,
          0.0,
          1.0
        ],
        "metallicFactor": 0.1,
        "roughnessFactor": 0.9
      },
      "name": "Color_009",
      "doubleSided": true
    },
    {
      "pbrMetallicRoughness": {
        "baseColorFactor": [
          0.6121,
          0.6121,
          0.0,
          1.0
        ],
        "metallicFactor": 0.1,
        "roughnessFactor": 0.9
      },
      "name": "Color_E06",
      "doubleSided": true
    },
    {
      "pbrMetallicRoughness": {
        "baseColorFactor": [
          0.006,
          0.006,
          0.006,
          1.0
        ],
        "metallicFactor": 0.1,
        "roughnessFactor": 0.9
      },
      "name": "mg [spec]1",
      "doubleSided": true
    },
    {
      "pbrMetallicRoughness": {
        "baseColorFactor": [
          1.0,
          0.0,
          0.0,
          1.0
        ],
        "metallicFactor": 0.1,
        "roughnessFactor": 0.9
      },
      "name": "Color_A01",
      "doubleSided": true
    },
    {
      "pbrMetallicRoughness": {
        "baseColorFactor": [
          0.0,
          0.0,
          0.0,
          1.0
        ],
        "metallicFactor": 0.1,
        "roughnessFactor": 0.9
      },
      "name": "Color M09",
      "doubleSided": true
    },
    {
      "pbrMetallicRoughness": {
        "baseColorFactor": [
          1.0,
          1.0,
          0.0278,
          1.0
        ],
        "metallicFactor": 0.1,
        "roughnessFactor": 0.9
      },
      "name": "Color_E02",
      "doubleSided": true
    },
    {
      "pbrMetallicRoughness": {
        "baseColorFactor": [
          0.325,
          0.0,
          0.0,
          1.0
        ],
        "metallicFactor": 0.1,
        "roughnessFactor": 0.9
      },
      "name": "Color_A11",
      "doubleSided": true
    },
    {
      "pbrMetallicRoughness": {
        "baseColorFactor": [
          0.022,
          0.022,
          0.022,
          1.0
        ],
        "metallicFactor": 0.1,
        "roughnessFactor": 0.9
      },
      "name": "mi-8_int1"
    }
  ],
  "meshes": [
    {
      "primitives": [
        {
          "attributes": {
            "POSITION": 0,
            "NORMAL": 1
          },
          "indices": 2,
          "mode": 4,
          "material": 0
        }
      ]
    },
    {
      "primitives": [
        {
          "attributes": {
            "POSITION": 0,
            "NORMAL": 1
          },
          "indices": 3,
          "mode": 4,
          "material": 1
        }
      ]
    },
    {
      "primitives": [
        {
          "attributes": {
            "POSITION": 0,
            "NORMAL": 1
          },
          "indices": 4,
          "mode": 4,
          "material": 2
        }
      ]
    },
    {
      "primitives": [
        {
          "attributes": {
            "POSITION": 0,
            "NORMAL": 1
          },
          "indices": 5,
          "mode": 4,
          "material": 4
        },
        {
          "attributes": {
            "POSITION": 0,
            "NORMAL": 1
          },
          "indices": 6,
          "mode": 4,
          "material": 5
        }
      ]
    },
    {
      "primitives": [
        {
          "attributes": {
            "POSITION": 0,
            "NORMAL": 1
          },
          "indices": 7,
          "mode": 4,
          "material": 3
        }
      ]
    },
    {
      "primitives": [
        {
          "attributes": {
            "POSITION": 0,
            "NORMAL": 1
          },
          "indices": 8,
          "mode": 4,
          "material": 4
        },
        {
          "attributes": {
            "POSITION": 0,
            "NORMAL": 1
          },
          "indices": 9,
          "mode": 4,
          "material": 5
        }
      ]
    },
    {
      "primitives": [
        {
          "attributes": {
            "POSITION": 0,
            "NORMAL": 1
          },
          "indices": 10,
          "mode": 4,
          "material": 3
        }
      ]
    },
    {
      "primitives": [
        {
          "attributes": {
            "POSITION": 0,
            "NORMAL": 1
          },
          "indices": 11,
          "mode": 4,
          "material": 4
        },
        {
          "attributes": {
            "POSITION": 0,
            "NORMAL": 1
          },
          "indices": 12,
          "mode": 4,
          "material": 3
        }
      ]
    },
    {
      "primitives": [
        {
          "attributes": {
            "POSITION": 0,
            "NORMAL": 1
          },
          "indices": 13,
          "mode": 4,
          "material": 3
        }
      ]
    },
    {
      "primitives": [
        {
          "attributes": {
            "POSITION": 0,
            "NORMAL": 1
          },
          "indices": 14,
          "mode": 4,
          "material": 4
        },
        {
          "attributes": {
            "POSITION": 0,
            "NORMAL": 1
          },
          "indices": 15,
          "mode": 4,
          "material": 3
        }
      ]
    },
    {
      "primitives": [
        {
          "attributes": {
            "POSITION": 0,
            "NORMAL": 1
          },
          "indices": 16,
          "mode": 4,
          "material": 3
        }
      ]
    },
    {
      "primitives": [
        {
          "attributes": {
            "POSITION": 0,
            "NORMAL": 1
          },
          "indices": 17,
          "mode": 4,
          "material": 1
        },
        {
          "attributes": {
            "POSITION": 0,
            "NORMAL": 1
          },
          "indices": 18,
          "mode": 4,
          "material": 6
        },
        {
          "attributes": {
            "POSITION": 0,
            "NORMAL": 1
          },
          "indices": 19,
          "mode": 4,
          "material": 3
        },
        {
          "attributes": {
            "POSITION": 0,
            "NORMAL": 1
          },
          "indices": 20,
          "mode": 4,
          "material": 4
        }
      ]
    },
    {
      "primitives": [
        {
          "attributes": {
            "POSITION": 0,
            "NORMAL": 1
          },
          "indices": 21,
          "mode": 4,
          "material": 1
        },
        {
          "attributes": {
            "POSITION": 0,
            "NORMAL": 1
          },
          "indices": 22,
          "mode": 4,
          "material": 6
        },
        {
          "attributes": {
            "POSITION": 0,
            "NORMAL": 1
          },
          "indices": 23,
          "mode": 4,
          "material": 3
        },
        {
          "attributes": {
            "POSITION": 0,
            "NORMAL": 1
          },
          "indices": 24,
          "mode": 4,
          "material": 4
        }
      ]
    },
    {
      "primitives": [
        {
          "attributes": {
            "POSITION": 0,
            "NORMAL": 1
          },
          "indices": 25,
          "mode": 4,
          "material": 7
        }
      ]
    },
    {
      "primitives": [
        {
          "attributes": {
            "POSITION": 0,
            "NORMAL": 1
          },
          "indices": 26,
          "mode": 4,
          "material": 7
        }
      ]
    },
    {
      "primitives": [
        {
          "attributes": {
            "POSITION": 0,
            "NORMAL": 1
          },
          "indices": 27,
          "mode": 4,
          "material": 15
        },
        {
          "attributes": {
            "POSITION": 0,
            "NORMAL": 1
          },
          "indices": 28,
          "mode": 4,
          "material": 10
        },
        {
          "attributes": {
            "POSITION": 0,
            "NORMAL": 1
          },
          "indices": 29,
          "mode": 4,
          "material": 6
        }
      ]
    },
    {
      "primitives": [
        {
          "attributes": {
            "POSITION": 0,
            "NORMAL": 1
          },
          "indices": 30,
          "mode": 4,
          "material": 12
        }
      ]
    },
    {
      "primitives": [
        {
          "attributes": {
            "POSITION": 0,
            "NORMAL": 1
          },
          "indices": 31,
          "mode": 4,
          "material": 12
        }
      ]
    },
    {
      "primitives": [
        {
          "attributes": {
            "POSITION": 0,
            "NORMAL": 1
          },
          "indices": 32,
          "mode": 4,
          "material": 7
        },
        {
          "attributes": {
            "POSITION": 0,
            "NORMAL": 1
          },
          "indices": 33,
          "mode": 4,
          "material": 8
        },
        {
          "attributes": {
            "POSITION": 0,
            "NORMAL": 1
          },
          "indices": 34,
          "mode": 4,
          "material": 9
        },
        {
          "attributes": {
            "POSITION": 0,
            "NORMAL": 1
          },
          "indices": 35,
          "mode": 4,
          "material": 10
        },
        {
          "attributes": {
            "POSITION": 0,
            "NORMAL": 1
          },
          "indices": 36,
          "mode": 4,
          "material": 11
        },
        {
          "attributes": {
            "POSITION": 0,
            "NORMAL": 1
          },
          "indices": 37,
          "mode": 4,
          "material": 12
        },
        {
          "attributes": {
            "POSITION": 0,
            "NORMAL": 1
          },
          "indices": 38,
          "mode": 4,
          "material": 13
        },
        {
          "attributes": {
            "POSITION": 0,
            "NORMAL": 1
          },
          "indices": 39,
          "mode": 4,
          "material": 14
        },
        {
          "attributes": {
            "POSITION": 0,
            "NORMAL": 1
          },
          "indices": 40,
          "mode": 4,
          "material": 5
        }
      ]
    }
  ],
  "accessors": [
    {
      "bufferView": 0,
      "componentType": 5126,
      "count": 50879,
      "type": "VEC3",
      "min": [
        -13.481101087166032,
        -0.09885594595495095,
        -53.28318286584216
      ],
      "max": [
        37.4841508415449,
        12.618551214696136,
        9.914709124247178
      ]
    },
    {
      "bufferView": 1,
      "componentType": 5126,
      "count": 50879,
      "type": "VEC3",
      "min": [
        -0.9999999999999999,
        -1.0,
        -1.0
      ],
      "max": [
        1.0,
        1.0,
        1.0
      ]
    },
    {
      "bufferView": 2,
      "componentType": 5123,
      "count": 444,
      "type": "SCALAR"
    },
    {
      "bufferView": 2,
      "componentType": 5123,
      "count": 180,
      "type": "SCALAR",
      "byteOffset": 888
    },
    {
      "bufferView": 2,
      "componentType": 5123,
      "count": 24960,
      "type": "SCALAR",
      "byteOffset": 1248
    },
    {
      "bufferView": 2,
      "componentType": 5123,
      "count": 3600,
      "type": "SCALAR",
      "byteOffset": 51168
    },
    {
      "bufferView": 2,
      "componentType": 5123,
      "count": 528,
      "type": "SCALAR",
      "byteOffset": 58368
    },
    {
      "bufferView": 2,
      "componentType": 5123,
      "count": 5256,
      "type": "SCALAR",
      "byteOffset": 59424
    },
    {
      "bufferView": 2,
      "componentType": 5123,
      "count": 3600,
      "type": "SCALAR",
      "byteOffset": 69936
    },
    {
      "bufferView": 2,
      "componentType": 5123,
      "count": 528,
      "type": "SCALAR",
      "byteOffset": 77136
    },
    {
      "bufferView": 2,
      "componentType": 5123,
      "count": 5256,
      "type": "SCALAR",
      "byteOffset": 78192
    },
    {
      "bufferView": 2,
      "componentType": 5123,
      "count": 3600,
      "type": "SCALAR",
      "byteOffset": 88704
    },
    {
      "bufferView": 2,
      "componentType": 5123,
      "count": 528,
      "type": "SCALAR",
      "byteOffset": 95904
    },
    {
      "bufferView": 2,
      "componentType": 5123,
      "count": 5256,
      "type": "SCALAR",
      "byteOffset": 96960
    },
    {
      "bufferView": 2,
      "componentType": 5123,
      "count": 3600,
      "type": "SCALAR",
      "byteOffset": 107472
    },
    {
      "bufferView": 2,
      "componentType": 5123,
      "count": 528,
      "type": "SCALAR",
      "byteOffset": 114672
    },
    {
      "bufferView": 2,
      "componentType": 5123,
      "count": 5256,
      "type": "SCALAR",
      "byteOffset": 115728
    },
    {
      "bufferView": 2,
      "componentType": 5123,
      "count": 2748,
      "type": "SCALAR",
      "byteOffset": 126240
    },
    {
      "bufferView": 2,
      "componentType": 5123,
      "count": 3030,
      "type": "SCALAR",
      "byteOffset": 131736
    },
    {
      "bufferView": 2,
      "componentType": 5123,
      "count": 180,
      "type": "SCALAR",
      "byteOffset": 137796
    },
    {
      "bufferView": 2,
      "componentType": 5123,
      "count": 990,
      "type": "SCALAR",
      "byteOffset": 138156
    },
    {
      "bufferView": 2,
      "componentType": 5123,
      "count": 1353,
      "type": "SCALAR",
      "byteOffset": 140136
    },
    {
      "bufferView": 2,
      "componentType": 5123,
      "count": 258,
      "type": "SCALAR",
      "byteOffset": 142842
    },
    {
      "bufferView": 2,
      "componentType": 5123,
      "count": 270,
      "type": "SCALAR",
      "byteOffset": 143358
    },
    {
      "bufferView": 2,
      "componentType": 5123,
      "count": 252,
      "type": "SCALAR",
      "byteOffset": 143898
    },
    {
      "bufferView": 2,
      "componentType": 5123,
      "count": 2187,
      "type": "SCALAR",
      "byteOffset": 144402
    },
    {
      "bufferView": 2,
      "componentType": 5123,
      "count": 9,
      "type": "SCALAR",
      "byteOffset": 148776
    },
    {
      "bufferView": 2,
      "componentType": 5123,
      "count": 14565,
      "type": "SCALAR",
      "byteOffset": 148794
    },
    {
      "bufferView": 2,
      "componentType": 5123,
      "count": 7206,
      "type": "SCALAR",
      "byteOffset": 177924
    },
    {
      "bufferView": 2,
      "componentType": 5123,
      "count": 36,
      "type": "SCALAR",
      "byteOffset": 192336
    },
    {
      "bufferView": 2,
      "componentType": 5123,
      "count": 2916,
      "type": "SCALAR",
      "byteOffset": 192408
    },
    {
      "bufferView": 2,
      "componentType": 5123,
      "count": 2916,
      "type": "SCALAR",
      "byteOffset": 198240
    },
    {
      "bufferView": 2,
      "componentType": 5123,
      "count": 20655,
      "type": "SCALAR",
      "byteOffset": 204072
    },
    {
      "bufferView": 2,
      "componentType": 5123,
      "count": 81,
      "type": "SCALAR",
      "byteOffset": 245382
    },
    {
      "bufferView": 2,
      "componentType": 5123,
      "count": 300,
      "type": "SCALAR",
      "byteOffset": 245544
    },
    {
      "bufferView": 2,
      "componentType": 5123,
      "count": 1188,
      "type": "SCALAR",
      "byteOffset": 246144
    },
    {
      "bufferView": 2,
      "componentType": 5123,
      "count": 294,
      "type": "SCALAR",
      "byteOffset": 248520
    },
    {
      "bufferView": 2,
      "componentType": 5123,
      "count": 1668,
      "type": "SCALAR",
      "byteOffset": 249108
    },
    {
      "bufferView": 2,
      "componentType": 5123,
      "count": 48,
      "type": "SCALAR",
      "byteOffset": 252444
    },
    {
      "bufferView": 2,
      "componentType": 5123,
      "count": 240,
      "type": "SCALAR",
      "byteOffset": 252540
    },
    {
      "bufferView": 2,
      "componentType": 5123,
      "count": 348,
      "type": "SCALAR",
      "byteOffset": 253020
    }
  ],
  "bufferViews": [
    {
      "buffer": 0,
      "byteLength": 610548,
      "target": 34962,
      "byteStride": 12
    },
    {
      "buffer": 0,
      "byteOffset": 610548,
      "byteLength": 610548,
      "target": 34962,
      "byteStride": 12
    },
    {
      "buffer": 0,
      "byteOffset": 1221096,
      "byteLength": 253716,
      "target": 34963
    }
  ],
  "buffers": [
    {
      "uri": "data:application/octet-stream;base64,",
      "byteLength": 1474812
    }
  ]
}